<?xml version="1.0" encoding="UTF-8"?>
<svg id="Capa_1" data-name="Capa 1" xmlns="http://www.w3.org/2000/svg" viewBox="0 0 33.15 36.64">
  <defs>
    <style>
      .cls-1 {
        fill: #fff;
      }
    </style>
  </defs>
  <path class="cls-1" d="M25.07,22.36c-.1.1-.68.59-.6.68,1.69.58,3.35,1.35,4.89,2.21l.19-.06c1.1-.97,2.44-1.65,2.58-3.22.12-1.38-.11-2.9.01-4.3.11-.45.8-.51.95-.07-.18,2.2.68,4.97-1.07,6.74-.29.29-2.04,1.75-2.33,1.81-.31.06-.55,0-.82-.11-.68,1.19-1.12,2.65-1.24,4.01-.03.37.05.82,0,1.17-.08.45-1.25.76-1.68.98-1.46.74-2.81,1.74-4.14,2.68-1.15.82-1.75,1.61-3.34,1.73-4.29.3-8.09-3-12.38-1.32-.34.13-1.27.68-1.53.67-.34-.02-.42-.36-.23-.57.1-.11.9-.5,1.09-.59,4.51-2,7.46.74,11.65,1.08.91.07,2.26.14,2.61-.83.59-1.64.47-4.58.21-6.29-.05-.31-.26-.75-.16-1.03.06-.17.87-.59,1.09-.75,1.24-.89,2.28-1.98,3.24-3.13-.6-.43-.97-.65-.45-1.33.88-1.15,2.35-2.15,3.44-3.14,2.11-1.92,4.46-4.63,4.67-7.47.09-1.29.11-3.35,0-4.63-.34-3.85-4.7-1.61-6.85-3.17-1.33-.96-1.28-2.88-3.16-3.13l-8.26.03c-1.66.27-1.79,2.85-3.77,3.48-2.05.66-6.51-.43-8.03,1.02-.4.39-.52,1.04-.56,1.57-.31,4.25.24,8.83,0,13.12.12,1.48.94,2.14,2.5,2.25,2.63.18,5.87.05,8.56.06.46,0,.96-.06,1.41-.06,1.7,0,3.41-.05,5.11.08.43.21.27.78-.19.84H3.92c-2.32-.04-3.69-1.03-3.83-3.23C-.19,15.86.31,11.32.09,7.02c.16-4.19,5.35-3.01,8.33-3.23,2.75-.2,2.34-3.51,4.98-3.72,2.71-.22,5.76.17,8.5,0,2.89.23,2.2,3.52,4.99,3.78,1.99.18,4.34-.25,5.38,1.86.59,1.2.5,4.6.41,6.02-.31,5.02-4.39,7.35-7.61,10.65h0ZM28.05,25.52l-3.15-1.37c-.99,1.61-2.51,2.89-4.12,3.98.02.74.21,1.5.25,2.25.06,1.1-.03,2.21-.21,3.3l2.28-3.91c-.8-1.26,1.48-1.9,1.58-.62.05.57-.43.88-.99.92l-2.31,4.07c1.64-1.21,3.31-2.39,5.23-3.2.05-1.89.5-3.75,1.44-5.42h0Z"/>
  <path class="cls-1" d="M16.79,6.68c7.39-.66,11.07,8.08,5.28,12.15-5.65,3.96-13.34-.94-11.48-7.27.75-2.56,3.34-4.62,6.2-4.88ZM16.72,7.59c-2.46.24-4.69,2.18-5.25,4.39-1.3,5.11,4.4,9.15,9.34,6.52,5.84-3.11,2.94-11.61-4.09-10.91h0Z"/>
</svg>