<svg width="37" height="40" viewBox="0 0 37 40" fill="none" xmlns="http://www.w3.org/2000/svg">
<path d="M27.3712 24.4169C27.2654 24.5245 26.6335 25.056 26.7109 25.155C28.5507 25.7877 30.3675 26.6298 32.0546 27.5639L32.2586 27.4983C33.4626 26.4382 34.9274 25.6915 35.0731 23.983C35.202 22.4726 34.9581 20.8196 35.0869 19.2935C35.2035 18.8076 35.9635 18.7314 36.1261 19.2201C35.9336 21.6233 36.8676 24.6463 34.9565 26.5821C34.6414 26.9013 32.7326 28.4965 32.4074 28.5592C32.073 28.6241 31.81 28.5699 31.5124 28.4381C30.7747 29.7412 30.2885 31.3279 30.1635 32.8155C30.1297 33.2195 30.2225 33.7104 30.1581 34.093C30.0753 34.5832 28.793 34.9245 28.3206 35.1646C26.7232 35.9747 25.2477 37.0669 23.8059 38.095C22.5536 38.987 21.8918 39.8569 20.1586 39.9788C15.4706 40.3065 11.3286 36.7064 6.64519 38.5388C6.26941 38.6856 5.25865 39.2855 4.97106 39.2698C4.59682 39.2499 4.51553 38.8766 4.72489 38.6422C4.82996 38.5253 5.70498 38.0943 5.91357 38.0016C10.834 35.8129 14.058 38.8089 18.6317 39.1829C19.6225 39.2641 21.0957 39.3354 21.4761 38.2816C22.1234 36.4891 21.993 33.2865 21.7054 31.4113C21.6533 31.0735 21.4201 30.5905 21.5313 30.282C21.5965 30.101 22.4769 29.6343 22.7185 29.4605C24.0728 28.4865 25.2086 27.3031 26.2516 26.0463C25.5928 25.5754 25.1948 25.3324 25.7607 24.5922C26.7178 23.3404 28.3291 22.2446 29.5139 21.168C31.8192 19.0733 34.3883 16.1144 34.6107 13.0073C34.7119 11.6016 34.7326 9.34451 34.6107 7.95091C34.241 3.74304 29.4809 6.19395 27.1365 4.49256C25.6887 3.44167 25.7439 1.35127 23.684 1.07411L14.6684 1.10618C12.8516 1.39687 12.7105 4.21256 10.5525 4.9058C8.31548 5.62397 3.44955 4.43129 1.78539 6.02296C1.34443 6.44474 1.21406 7.16149 1.17188 7.7329C0.830613 12.3775 1.43646 17.3777 1.17188 22.0593C1.29995 23.6781 2.19338 24.3941 3.89818 24.5138C6.76713 24.7147 10.3109 24.5672 13.2481 24.5758C13.7512 24.5772 14.2949 24.5124 14.7927 24.5138C16.6493 24.5216 18.5174 24.4632 20.3703 24.6C20.8388 24.8301 20.6647 25.4557 20.1586 25.5162L4.28086 25.512C1.74628 25.4692 0.255444 24.3884 0.0966977 21.9895C-0.211593 17.3207 0.337502 12.3618 0.0966977 7.66236C0.273083 3.09255 5.93428 4.37786 9.18974 4.1406C12.1944 3.92116 11.7489 0.304643 14.6293 0.0745135C17.5918 -0.16274 20.9132 0.259044 23.9141 0.0745135C27.0652 0.326729 26.3183 3.91974 29.3659 4.20045C31.5393 4.40137 34.103 3.92971 35.238 6.22601C35.886 7.53625 35.7787 11.2497 35.6828 12.7936C35.3423 18.2747 30.8943 20.8232 27.3712 24.4162V24.4169ZM30.6221 27.8646L27.178 26.3712C26.0959 28.1325 24.4325 29.5275 22.6824 30.713C22.7031 31.516 22.9148 32.3496 22.9562 33.1682C23.0176 34.3716 22.9186 35.5828 22.7231 36.7691L25.2124 32.4949C24.3359 31.117 26.8298 30.4195 26.941 31.8195C26.9908 32.4415 26.4755 32.7842 25.8581 32.8255L23.3358 37.2685C25.1212 35.9462 26.9548 34.6601 29.0492 33.7781C29.1006 31.7198 29.5937 29.6892 30.6205 27.8646H30.6221Z" fill="black"/>
<path d="M18.3362 7.29348C26.4032 6.57317 30.4247 16.1189 24.0971 20.554C17.9313 24.8759 9.53461 19.5309 11.5653 12.6164C12.3867 9.81991 15.2111 7.57277 18.3362 7.29348ZM18.258 8.29023C15.5723 8.55527 13.1413 10.6685 12.5293 13.0852C11.1152 18.6617 17.3331 23.0733 22.7251 20.2064C29.1019 16.8157 25.9315 7.5343 18.2588 8.29094L18.258 8.29023Z" fill="black"/>
</svg>
